<?xml version="1.0" encoding="utf-8"?>
<!-- Generator: Adobe Illustrator 20.1.0, SVG Export Plug-In . SVG Version: 6.00 Build 0)  -->
<svg version="1.1" id="Layer_1" xmlns="http://www.w3.org/2000/svg" xmlns:xlink="http://www.w3.org/1999/xlink" x="0px" y="0px"
	 viewBox="0 0 18.5 24" style="enable-background:new 0 0 18.5 24;" xml:space="preserve">
<style type="text/css">
	.st0{fill:#FFFFFF;}
</style>
<g transform="translate(0,-952.36218)">
	<path class="st0" d="M9.2,952.4c-1.1,0-1.8,0.2-2.4,0.5c-0.6,0.4-0.8,0.7-1,0.9c-0.2,0.2-0.4,0.4-1.1,0.5c-2,0.3-3,0.3-4.8,0.3
		c0,4.1,0,8.1,0,12.2c0,2.2,1.4,3.9,3,5.3c2.1,1.7,4.2,2.8,6.2,4.2c2.1-1.5,4.5-2.8,6.2-4.2c1.7-1.4,3-3.1,3-5.3c0-4.1,0-8.1,0-12.2
		c-1.6,0-3.3,0.1-4.8-0.3c-0.7-0.2-0.9-0.3-1.1-0.5c-0.2-0.2-0.4-0.6-0.9-0.9S10.3,952.4,9.2,952.4L9.2,952.4z M2,958.1l12.1,12.7
		c-1.3,1.1-3.1,2.1-4.8,3.2c-1.8-1.2-3.6-2.2-5-3.3c-1.5-1.2-2.3-2.3-2.3-3.8L2,958.1z"/>
</g>
</svg>
